<svg width="22" height="22" viewBox="0 0 22 22" fill="none" xmlns="http://www.w3.org/2000/svg">
<path d="M6.5 2.75H17.5569C17.3235 2.09246 16.8924 1.52322 16.3228 1.12038C15.7531 0.717547 15.0727 0.500842 14.375 0.5H3.875C2.97989 0.5 2.12145 0.855579 1.48851 1.48851C0.855579 2.12145 0.5 2.97989 0.5 3.875V14.375C0.500842 15.0727 0.717547 15.7531 1.12038 16.3228C1.52322 16.8924 2.09246 17.3235 2.75 17.5569V6.5C2.75 5.50544 3.14509 4.55161 3.84835 3.84835C4.55161 3.14509 5.50544 2.75 6.5 2.75Z" fill="white"/>
<path d="M10.7727 11.8215C10.4213 11.8215 10.1364 12.1206 10.1364 12.4896V16.1639C10.1364 16.5328 10.4213 16.8319 10.7727 16.8319H15.2273C15.5787 16.8319 15.8636 16.5328 15.8636 16.1639V12.4896C15.8636 12.1206 15.5787 11.8215 15.2273 11.8215H10.7727Z" fill="white"/>
<path d="M14.2728 9.50418V11.1534H11.7273V9.50418C11.7273 9.14982 11.8614 8.80997 12.1001 8.5594C12.3388 8.30883 12.6625 8.16806 13.0001 8.16806C13.3376 8.16806 13.6613 8.30883 13.9 8.5594C14.1387 8.80997 14.2728 9.14982 14.2728 9.50418Z" fill="white"/>
<path fill-rule="evenodd" clip-rule="evenodd" d="M18.125 21.5H7.625C6.7299 21.5 5.87145 21.1444 5.23852 20.5115C4.60558 19.8786 4.25 19.0201 4.25 18.125V7.625C4.25 6.7299 4.60558 5.87145 5.23852 5.23852C5.87145 4.60558 6.7299 4.25 7.625 4.25H18.125C19.0201 4.25 19.8786 4.60558 20.5115 5.23852C21.1444 5.87145 21.5 6.7299 21.5 7.625V18.125C21.5 19.0201 21.1444 19.8786 20.5115 20.5115C19.8786 21.1444 19.0201 21.5 18.125 21.5ZM11.6501 8.08701C12.0081 7.71115 12.4937 7.5 13.0001 7.5C13.5064 7.5 13.992 7.71115 14.35 8.08701C14.708 8.46287 14.9091 8.97264 14.9091 9.50418V11.1534H15.2273C15.9302 11.1534 16.5 11.7516 16.5 12.4896V16.1639C16.5 16.9018 15.9302 17.5 15.2273 17.5H10.7727C10.0698 17.5 9.5 16.9018 9.5 16.1639V12.4896C9.5 11.7516 10.0698 11.1534 10.7727 11.1534H11.091V9.50418C11.091 8.97264 11.2921 8.46287 11.6501 8.08701Z" fill="white"/>
<rect x="7.5" y="6.5" width="11" height="12" fill="white"/>
<path d="M16.2143 8.5H9.78571C9.44484 8.50039 9.11803 8.64099 8.87699 8.89095C8.63595 9.14092 8.50037 9.47983 8.5 9.83333V15.1667C8.50037 15.5202 8.63595 15.8591 8.87699 16.109C9.11803 16.359 9.44484 16.4996 9.78571 16.5H16.2143C16.5552 16.4996 16.882 16.359 17.123 16.109C17.364 15.8591 17.4996 15.5202 17.5 15.1667V9.83333C17.4996 9.47983 17.364 9.14092 17.123 8.89095C16.882 8.64099 16.5552 8.50039 16.2143 8.5ZM14.6071 9.83333C14.7979 9.83333 14.9843 9.89198 15.1429 10.0019C15.3014 10.1117 15.425 10.2679 15.498 10.4506C15.571 10.6334 15.5901 10.8344 15.5529 11.0284C15.5157 11.2224 15.4239 11.4006 15.289 11.5404C15.1541 11.6803 14.9823 11.7755 14.7953 11.8141C14.6082 11.8527 14.4143 11.8329 14.2381 11.7572C14.0619 11.6815 13.9113 11.5534 13.8054 11.3889C13.6994 11.2245 13.6429 11.0311 13.6429 10.8333C13.6431 10.5682 13.7448 10.314 13.9256 10.1265C14.1064 9.93905 14.3515 9.83361 14.6071 9.83333ZM9.78571 15.8333C9.61522 15.8333 9.4517 15.7631 9.33115 15.6381C9.21059 15.513 9.14286 15.3435 9.14286 15.1667V13.7577L11.0481 12.0015C11.232 11.8324 11.471 11.7424 11.7166 11.7497C11.9622 11.7571 12.1959 11.8613 12.37 12.041L13.6748 13.3913L11.3199 15.8333H9.78571ZM16.8571 15.1667C16.8571 15.3435 16.7894 15.513 16.6689 15.6381C16.5483 15.7631 16.3848 15.8333 16.2143 15.8333H12.2292L14.6684 13.3038C14.8411 13.1514 15.0603 13.0675 15.287 13.0669C15.5137 13.0663 15.7333 13.149 15.9067 13.3004L16.8571 14.1217V15.1667Z" fill="#0EAE00"/>
</svg>
