<svg width="26" height="24" viewBox="0 0 26 24" fill="none" xmlns="http://www.w3.org/2000/svg">
<path fill-rule="evenodd" clip-rule="evenodd" d="M8.23622 0.496129C8.41543 0.188911 8.74433 0 9.1 0H16.9C17.2557 0 17.5846 0.188911 17.7638 0.496129L19.5744 3.6H22C24.2091 3.6 26 5.39086 26 7.6V19.9C26 22.1091 24.2091 23.9 22 23.9H4C1.79086 23.9 0 22.1091 0 19.9V7.6C0 5.39086 1.79086 3.6 4 3.6H6.42563L8.23622 0.496129ZM9.67437 2L7.86378 5.10387C7.68457 5.41109 7.35567 5.6 7 5.6H4C2.89543 5.6 2 6.49543 2 7.6V19.9C2 21.0046 2.89543 21.9 4 21.9H22C23.1046 21.9 24 21.0046 24 19.9V7.6C24 6.49543 23.1046 5.6 22 5.6H19C18.6443 5.6 18.3154 5.41109 18.1362 5.10387L16.3256 2H9.67437ZM13 9.5C11.067 9.5 9.5 11.067 9.5 13C9.5 14.933 11.067 16.5 13 16.5C14.933 16.5 16.5 14.933 16.5 13C16.5 11.067 14.933 9.5 13 9.5ZM7.5 13C7.5 9.96243 9.96243 7.5 13 7.5C16.0376 7.5 18.5 9.96243 18.5 13C18.5 16.0376 16.0376 18.5 13 18.5C9.96243 18.5 7.5 16.0376 7.5 13Z" fill="white"/>
</svg>
