<svg width="27" height="26" viewBox="0 0 27 26" fill="none" xmlns="http://www.w3.org/2000/svg">
<path d="M13.3335 0C6.15378 0 0.333496 5.8203 0.333496 13C0.333496 20.1797 6.15378 26 13.3335 26C20.5132 26 26.3335 20.1797 26.3335 13C26.3335 5.8203 20.5132 0 13.3335 0ZM11.4764 3.71429H15.1906V11.1429L14.2621 16.7143H12.4049L11.4764 11.1429V3.71429ZM13.3335 18.5714C13.826 18.5714 14.2984 18.7671 14.6467 19.1154C14.995 19.4637 15.1906 19.936 15.1906 20.4286C15.1906 20.9211 14.995 21.3935 14.6467 21.7418C14.2984 22.09 13.826 22.2857 13.3335 22.2857C12.841 22.2857 12.3686 22.09 12.0203 21.7418C11.672 21.3935 11.4764 20.9211 11.4764 20.4286C11.4764 19.936 11.672 19.4637 12.0203 19.1154C12.3686 18.7671 12.841 18.5714 13.3335 18.5714Z" fill="#EF2929"/>
</svg>
