<svg width="24" height="24" viewBox="0 0 24 24" fill="none" xmlns="http://www.w3.org/2000/svg">
<path d="M12 0C5.376 0 0 5.376 0 12C0 18.624 5.376 24 12 24C18.624 24 24 18.624 24 12C24 5.376 18.624 0 12 0ZM12 4.28571C16.2583 4.28571 19.7143 7.74171 19.7143 12C19.7143 13.1508 19.4569 14.2398 19.0045 15.221L8.77232 4.99554C9.75498 4.5415 10.847 4.28571 12 4.28571ZM5.08929 8.58482L15.4219 18.9107C14.39 19.4231 13.2296 19.7143 12 19.7143C7.74171 19.7143 4.28571 16.2583 4.28571 12C4.28571 10.7725 4.57854 9.61539 5.08929 8.58482Z" fill="#D40000"/>
</svg>
