<svg width="14" height="14" viewBox="0 0 14 14" fill="none" xmlns="http://www.w3.org/2000/svg">
<path fill-rule="evenodd" clip-rule="evenodd" d="M10.5059 5.06208C10.7475 5.06208 10.9434 5.25795 10.9434 5.49958L10.9434 10.5071C10.9434 10.6231 10.8973 10.7344 10.8152 10.8164C10.7332 10.8985 10.6219 10.9446 10.5059 10.9446L5.49836 10.9446C5.25674 10.9446 5.06087 10.7487 5.06086 10.5071C5.06086 10.2654 5.25674 10.0696 5.49836 10.0696L10.0684 10.0696L10.0684 5.49958C10.0684 5.25795 10.2642 5.06208 10.5059 5.06208Z" fill="#EE201C"/>
<path fill-rule="evenodd" clip-rule="evenodd" d="M3.18429 3.18534C3.35515 3.01448 3.63216 3.01448 3.80301 3.18534L10.745 10.1274C10.9159 10.2982 10.9159 10.5752 10.745 10.7461C10.5742 10.9169 10.2972 10.9169 10.1263 10.7461L3.18429 3.80405C3.01344 3.6332 3.01344 3.35619 3.18429 3.18534Z" fill="#EE201C"/>
</svg>
