<svg width="20" height="20" viewBox="0 0 20 20" fill="none" xmlns="http://www.w3.org/2000/svg">
<path fill-rule="evenodd" clip-rule="evenodd" d="M15.4172 1.52051C14.4861 1.52051 13.7397 2.26687 13.7397 3.19801C13.7397 4.09444 14.4292 4.8169 15.302 4.87351C15.3752 4.86701 15.4501 4.86701 15.5234 4.87351C16.3946 4.81696 17.0871 4.09542 17.0947 3.19556C17.0934 2.27297 16.3458 1.52051 15.4172 1.52051ZM12.3647 3.19801C12.3647 1.50748 13.7267 0.145508 15.4172 0.145508C17.1095 0.145508 18.4697 1.51839 18.4697 3.19801V3.20292H18.4697C18.4579 4.85193 17.1599 6.19081 15.5246 6.25006C15.4872 6.25142 15.4498 6.24971 15.4127 6.24497C15.3756 6.24971 15.3381 6.25142 15.3007 6.25006C13.6663 6.19084 12.3647 4.8517 12.3647 3.19801Z" fill="#F1F1F1"/>
<path fill-rule="evenodd" clip-rule="evenodd" d="M14.4093 7.11331C15.8029 6.86917 17.392 7.10193 18.5472 7.86848L18.5485 7.8693C19.3381 8.39571 19.824 9.15847 19.824 10.0088C19.824 10.8592 19.3381 11.622 18.5485 12.1484C17.4018 12.9158 15.8317 13.1477 14.4416 12.9143C14.0672 12.8515 13.8146 12.497 13.8774 12.1225C13.9403 11.7481 14.2948 11.4955 14.6693 11.5583C15.7903 11.7465 16.988 11.5387 17.7845 11.0051L17.7858 11.0043C18.2887 10.669 18.449 10.2951 18.449 10.0088C18.449 9.72266 18.2888 9.34895 17.7864 9.0138C16.98 8.47898 15.7643 8.27187 14.6466 8.46769C14.2726 8.5332 13.9163 8.28313 13.8508 7.90913C13.7852 7.53513 14.0353 7.17883 14.4093 7.11331Z" fill="#F1F1F1"/>
<path fill-rule="evenodd" clip-rule="evenodd" d="M1.50244 3.19801C1.50244 1.51838 2.86268 0.145508 4.55494 0.145508C6.24547 0.145508 7.60744 1.50748 7.60744 3.19801C7.60744 4.8517 6.30591 6.19084 4.6715 6.25006C4.63409 6.25142 4.59664 6.24971 4.55953 6.24497C4.52242 6.24971 4.48497 6.25142 4.44755 6.25006C2.81228 6.19081 1.51424 4.85194 1.50246 3.20292L1.50244 3.19801ZM2.87744 3.19556C2.88512 4.09543 3.57757 4.81696 4.44884 4.87351C4.52204 4.86701 4.59702 4.86701 4.67022 4.87351C5.54299 4.8169 6.23244 4.09444 6.23244 3.19801C6.23244 2.26687 5.48608 1.52051 4.55494 1.52051C3.62636 1.52051 2.87876 2.27297 2.87744 3.19556Z" fill="#F1F1F1"/>
<path fill-rule="evenodd" clip-rule="evenodd" d="M2.18556 9.01379C2.992 8.47897 4.2076 8.27187 5.32536 8.46769C5.69936 8.5332 6.05566 8.28313 6.12118 7.90913C6.18669 7.53513 5.93662 7.17883 5.56262 7.11331C4.169 6.86917 2.57993 7.10193 1.4247 7.86848L1.4247 7.86848L1.42347 7.8693C0.633865 8.39571 0.147949 9.15847 0.147949 10.0088C0.147949 10.859 0.63361 11.6216 1.42285 12.148C2.56956 12.9157 4.13995 13.1478 5.53032 12.9143C5.90477 12.8515 6.15737 12.497 6.0945 12.1225C6.03164 11.7481 5.67712 11.4955 5.30266 11.5583C4.18161 11.7465 2.98398 11.5387 2.18742 11.0051L2.18618 11.0043C1.68328 10.669 1.52295 10.2951 1.52295 10.0088C1.52295 9.72265 1.68315 9.34895 2.18556 9.01379Z" fill="#F1F1F1"/>
<path fill-rule="evenodd" clip-rule="evenodd" d="M9.91724 8.36816C8.98611 8.36816 8.23975 9.11453 8.23975 10.0457C8.23975 10.9421 8.9292 11.6646 9.80196 11.7212C9.8762 11.7146 9.95225 11.7147 10.0264 11.7214C10.8906 11.6719 11.587 10.9479 11.5947 10.0432C11.5934 9.12062 10.8458 8.36816 9.91724 8.36816ZM6.86475 10.0457C6.86475 8.35514 8.22671 6.99316 9.91724 6.99316C11.6095 6.99316 12.9697 8.36604 12.9697 10.0457V10.0506H12.9697C12.958 11.6952 11.6633 13.0502 10.0197 13.0979C9.9839 13.0989 9.94812 13.0972 9.91266 13.0926C9.87555 13.0974 9.8381 13.0991 9.80069 13.0977C8.16627 13.0385 6.86475 11.6994 6.86475 10.0457Z" fill="#F1F1F1"/>
<path fill-rule="evenodd" clip-rule="evenodd" d="M10.0031 13.8818C11.0742 13.8818 12.1823 14.1486 13.0485 14.7261C13.8381 15.2525 14.324 16.0152 14.324 16.8656C14.324 17.7158 13.8383 18.4785 13.0488 19.0049C12.179 19.5865 11.0713 19.8562 9.99967 19.8562C8.92809 19.8562 7.82039 19.5865 6.95051 19.0049C6.16109 18.4785 5.67529 17.7158 5.67529 16.8656C5.67529 16.0152 6.16121 15.2525 6.95081 14.7261L6.95246 14.7249L6.95247 14.725C7.82236 14.1486 8.93178 13.8818 10.0031 13.8818ZM7.71271 15.8707C7.21045 16.2058 7.05029 16.5794 7.05029 16.8656C7.05029 17.1519 7.21063 17.5258 7.71352 17.861L7.71435 17.8616C8.31105 18.2606 9.1373 18.4812 9.99967 18.4812C10.862 18.4812 11.6883 18.2606 12.285 17.8616L12.2858 17.861C12.7887 17.5258 12.949 17.1519 12.949 16.8656C12.949 16.5793 12.7887 16.2054 12.2858 15.8701C11.6945 15.4759 10.8684 15.2568 10.0031 15.2568C9.13838 15.2568 8.30942 15.4757 7.71271 15.8707Z" fill="#F1F1F1"/>
</svg>
