<svg width="27" height="26" viewBox="0 0 27 26" fill="none" xmlns="http://www.w3.org/2000/svg">
<path d="M13.6665 0C10.2187 0 6.91205 1.36963 4.47408 3.8076C2.0361 6.24557 0.666504 9.55219 0.666504 13C0.666504 16.4478 2.0361 19.7544 4.47408 22.1924C6.91205 24.6304 10.2187 26 13.6665 26C17.1143 26 20.421 24.6304 22.8589 22.1924C25.2969 19.7544 26.6665 16.4478 26.6665 13C26.6665 9.55219 25.2969 6.24557 22.8589 3.8076C20.421 1.36963 17.1143 0 13.6665 0ZM20.1293 7.02558C21.823 6.97729 22.694 9.03314 21.4794 10.2143L11.8094 19.8844L6.41068 14.4857C4.58697 12.7363 7.28725 10.036 9.03668 11.8597L11.8094 14.6324L18.8536 7.58828C19.1901 7.24167 19.6484 7.03983 20.1313 7.02558H20.1293Z" fill="#4E9A06"/>
</svg>
