<svg width="20" height="20" viewBox="0 0 20 20" fill="none" xmlns="http://www.w3.org/2000/svg">
<path fill-rule="evenodd" clip-rule="evenodd" d="M10 7.9375C8.86091 7.9375 7.9375 8.86091 7.9375 10C7.9375 11.1391 8.86091 12.0625 10 12.0625C11.1391 12.0625 12.0625 11.1391 12.0625 10C12.0625 8.86091 11.1391 7.9375 10 7.9375ZM6.5625 10C6.5625 8.10152 8.10152 6.5625 10 6.5625C11.8985 6.5625 13.4375 8.10152 13.4375 10C13.4375 11.8985 11.8985 13.4375 10 13.4375C8.10152 13.4375 6.5625 11.8985 6.5625 10Z" fill="#F1F1F1"/>
<path fill-rule="evenodd" clip-rule="evenodd" d="M7.80335 2.45562C7.55798 2.04684 7.04125 1.91968 6.65751 2.14798L6.64751 2.15392L5.06163 3.06134C4.55987 3.34806 4.38677 3.99811 4.67378 4.49486L4.0785 4.8388L4.6733 4.49404C5.16378 5.34024 5.29564 6.26771 4.8575 7.02801C4.41943 7.78819 3.55122 8.1388 2.57516 8.1388C1.99471 8.1388 1.521 8.61697 1.521 9.19297V10.8063C1.521 11.3823 1.99471 11.8605 2.57516 11.8605C3.55122 11.8605 4.41943 12.2111 4.8575 12.9713C5.29558 13.7315 5.16381 14.6588 4.6735 15.5049C4.38688 16.0016 4.55967 16.6511 5.06126 16.9377L6.65756 17.8512C7.04129 18.0795 7.55796 17.9524 7.80333 17.5437L7.90185 17.3735C8.39215 16.5276 9.1312 15.9511 10.0082 15.9511C10.8858 15.9511 11.6226 16.528 12.1085 17.3749C12.1087 17.3753 12.1089 17.3757 12.1091 17.3761L12.2061 17.5436C12.4515 17.9524 12.9682 18.0796 13.352 17.8513L13.362 17.8453L14.9479 16.9379C15.4483 16.652 15.624 16.0109 15.335 15.5031C14.8455 14.6575 14.7142 13.7309 15.152 12.9713C15.5901 12.2111 16.4583 11.8605 17.4343 11.8605C18.0148 11.8605 18.4885 11.3823 18.4885 10.8063V9.19297C18.4885 8.61251 18.0103 8.1388 17.4343 8.1388C16.4583 8.1388 15.5901 7.78819 15.152 7.02801C14.7139 6.26786 14.8457 5.34061 15.3359 4.49453C15.6226 3.99783 15.4499 3.34821 14.9482 3.06155L13.3519 2.14806C12.9682 1.91976 12.4515 2.04684 12.2061 2.45563L12.1076 2.62576C11.6173 3.47167 10.8783 4.04818 10.0013 4.04818C9.12374 4.04818 8.38702 3.47135 7.90119 2.62463C7.90092 2.62416 7.90065 2.62368 7.90038 2.62321L7.80335 2.45562ZM5.95994 0.963055C7.02275 0.334805 8.37085 0.720241 8.98684 1.75562L8.99102 1.76265L9.09181 1.93684L9.09328 1.93939C9.43245 2.53106 9.78624 2.67318 10.0013 2.67318C10.2174 2.67318 10.5739 2.52985 10.9177 1.93684C10.9176 1.93694 10.9177 1.93674 10.9177 1.93684L11.0226 1.7556C11.6386 0.720212 12.9868 0.334802 14.0496 0.963064L15.6304 1.86772C16.797 2.53433 17.1926 4.02949 16.5263 5.18274L16.5258 5.18356C16.1821 5.77652 16.2361 6.1553 16.3433 6.34147C16.4507 6.52774 16.7512 6.7638 17.4343 6.7638C18.765 6.7638 19.8635 7.84842 19.8635 9.19297V10.8063C19.8635 12.137 18.7789 13.2355 17.4343 13.2355C16.7512 13.2355 16.4507 13.4715 16.3433 13.6578C16.2361 13.844 16.1821 14.2227 16.5258 14.8157L16.5279 14.8194C17.1909 15.9795 16.7979 17.4642 15.6308 18.1313C15.6307 18.1314 15.6309 18.1313 15.6308 18.1313L14.0495 19.0362C12.9867 19.6644 11.6386 19.279 11.0227 18.2436L11.0185 18.2366L10.9177 18.0624L10.9162 18.0599C10.577 17.4682 10.2233 17.3261 10.0082 17.3261C9.79208 17.3261 9.43562 17.4694 9.09181 18.0624C9.09175 18.0625 9.09187 18.0623 9.09181 18.0624L8.98688 18.2437C8.37091 19.279 7.02282 19.6644 5.96002 19.0363L4.37907 18.1315C4.37894 18.1315 4.37919 18.1316 4.37907 18.1315C3.21278 17.4648 2.81696 15.9697 3.48321 14.8165L3.48369 14.8157C3.82738 14.2227 3.77344 13.844 3.66616 13.6578C3.55882 13.4715 3.25827 13.2355 2.57516 13.2355C1.23062 13.2355 0.145996 12.137 0.145996 10.8063V9.19297C0.145996 7.86229 1.23062 6.7638 2.57516 6.7638C3.25827 6.7638 3.55882 6.52774 3.66616 6.34147C3.77344 6.1553 3.82738 5.77652 3.48369 5.18356L3.48321 5.18274C2.81696 4.02961 3.21241 2.53465 4.3787 1.86793L5.95994 0.963055Z" fill="#F1F1F1"/>
</svg>
