<svg width="14" height="14" viewBox="0 0 14 14" fill="none" xmlns="http://www.w3.org/2000/svg">
<path fill-rule="evenodd" clip-rule="evenodd" d="M5.06012 3.49316C5.06012 3.25154 5.256 3.05566 5.49762 3.05566L10.5051 3.05566C10.6212 3.05566 10.7324 3.10176 10.8145 3.18381C10.8965 3.26585 10.9426 3.37713 10.9426 3.49316L10.9426 8.50066C10.9426 8.74228 10.7467 8.93816 10.5051 8.93816C10.2635 8.93816 10.0676 8.74228 10.0676 8.50066L10.0676 3.93066L5.49762 3.93066C5.256 3.93066 5.06012 3.73479 5.06012 3.49316Z" fill="#1A932E"/>
<path fill-rule="evenodd" clip-rule="evenodd" d="M3.18387 10.8152C3.01302 10.6444 3.01302 10.3674 3.18387 10.1965L10.1259 3.25448C10.2967 3.08362 10.5738 3.08363 10.7446 3.25448C10.9155 3.42533 10.9155 3.70234 10.7446 3.8732L3.80259 10.8152C3.63173 10.9861 3.35473 10.9861 3.18387 10.8152Z" fill="#1A932E"/>
</svg>
