<svg width="27" height="26" viewBox="0 0 27 26" fill="none" xmlns="http://www.w3.org/2000/svg">
<path d="M13.3335 26C6.15378 26 0.333496 20.1797 0.333496 13C0.333496 5.8203 6.15378 0 13.3335 0C20.5132 0 26.3335 5.8203 26.3335 13C26.3335 20.1797 20.5132 26 13.3335 26ZM11.4764 22.2857H15.1906V14.8571L14.2621 9.28572H12.4049L11.4764 14.8571V22.2857ZM13.3335 7.42857C13.826 7.42857 14.2984 7.23291 14.6467 6.88463C14.995 6.53634 15.1906 6.06397 15.1906 5.57143C15.1906 5.07888 14.995 4.60651 14.6467 4.25823C14.2984 3.90995 13.826 3.71429 13.3335 3.71429C12.841 3.71429 12.3686 3.90995 12.0203 4.25823C11.672 4.60651 11.4764 5.07888 11.4764 5.57143C11.4764 6.06397 11.672 6.53634 12.0203 6.88463C12.3686 7.23291 12.841 7.42857 13.3335 7.42857Z" fill="#5E5858"/>
</svg>
