<svg xmlns="http://www.w3.org/2000/svg" width="16" height="16" viewBox="0 0 16 16">
  <path id="Shape" d="M9.755,15.531A5.155,5.155,0,0,0,8,15.062a5.77,5.77,0,0,0-1.851.464,5.8,5.8,0,0,1-1.928.464q-1.759,0-1.76-1.521A4.6,4.6,0,0,1,3,12.474a8.935,8.935,0,0,1,1.342-2.005,7.972,7.972,0,0,1,1.8-1.521A3.6,3.6,0,0,1,8,8.333a4.119,4.119,0,0,1,2.452,1.016,8.968,8.968,0,0,1,2.2,2.469,5.2,5.2,0,0,1,.885,2.65,1.737,1.737,0,0,1-.164.8,1.04,1.04,0,0,1-.466.469,2.279,2.279,0,0,1-.62.208,4.1,4.1,0,0,1-.731.058A5.186,5.186,0,0,1,9.755,15.531Zm2.437-5.468a2.58,2.58,0,0,1-.4-1.448,4.163,4.163,0,0,1,.337-1.589,3.864,3.864,0,0,1,.967-1.4,1.98,1.98,0,0,1,1.361-.579,1.289,1.289,0,0,1,1.144.62A2.6,2.6,0,0,1,16,7.125a4.127,4.127,0,0,1-.337,1.583A3.863,3.863,0,0,1,14.7,10.1a1.979,1.979,0,0,1-1.361.578A1.291,1.291,0,0,1,12.192,10.063ZM1.3,10.1A3.863,3.863,0,0,1,.337,8.708,4.127,4.127,0,0,1,0,7.125,2.6,2.6,0,0,1,.4,5.672a1.289,1.289,0,0,1,1.144-.62,1.983,1.983,0,0,1,1.361.579,3.875,3.875,0,0,1,.967,1.4,4.161,4.161,0,0,1,.336,1.589,2.58,2.58,0,0,1-.4,1.448,1.291,1.291,0,0,1-1.145.614A1.978,1.978,0,0,1,1.3,10.1ZM9.289,5.729a2.32,2.32,0,0,1-.607-.964A3.783,3.783,0,0,1,8.5,3.583a4.665,4.665,0,0,1,.289-1.578A3.779,3.779,0,0,1,9.669.6,1.828,1.828,0,0,1,11,0a1.406,1.406,0,0,1,1.01.406,2.318,2.318,0,0,1,.606.964A3.783,3.783,0,0,1,12.8,2.552a4.7,4.7,0,0,1-.288,1.572,3.769,3.769,0,0,1-.885,1.412,1.837,1.837,0,0,1-1.328.6A1.4,1.4,0,0,1,9.289,5.729ZM4.375,5.537A3.769,3.769,0,0,1,3.49,4.125,4.7,4.7,0,0,1,3.2,2.552,3.757,3.757,0,0,1,3.385,1.37,2.309,2.309,0,0,1,3.991.406,1.406,1.406,0,0,1,5,0,1.828,1.828,0,0,1,6.332.6a3.79,3.79,0,0,1,.88,1.406A4.685,4.685,0,0,1,7.5,3.583a3.757,3.757,0,0,1-.183,1.183,2.309,2.309,0,0,1-.606.964,1.406,1.406,0,0,1-1.01.406A1.837,1.837,0,0,1,4.375,5.537Z" fill="#fff"/>
</svg>
